<?xml version="1.0" encoding="UTF-8" standalone="no" ?>
<!DOCTYPE svg PUBLIC "-//W3C//DTD SVG 1.1//EN" "http://www.w3.org/Graphics/SVG/1.1/DTD/svg11.dtd">
<svg xmlns="http://www.w3.org/2000/svg" xmlns:xlink="http://www.w3.org/1999/xlink" version="1.1" width="1080" height="1080" viewBox="0 0 1080 1080" xml:space="preserve">
<desc>Created with Fabric.js 5.2.4</desc>
<defs>
</defs>
<rect x="0" y="0" width="100%" height="100%" fill="transparent"></rect>
<g transform="matrix(1 0 0 1 540 540)" id="c0d5553e-2d9c-4fcc-99d7-a00315f15e16"  >
<rect style="stroke: none; stroke-width: 1; stroke-dasharray: none; stroke-linecap: butt; stroke-dashoffset: 0; stroke-linejoin: miter; stroke-miterlimit: 4; fill: rgb(255,255,255); fill-rule: nonzero; opacity: 1; visibility: hidden;" vector-effect="non-scaling-stroke"  x="-540" y="-540" rx="0" ry="0" width="1080" height="1080" />
</g>
<g transform="matrix(1 0 0 1 540 540)" id="418cb9d3-11db-413a-8cf5-34288d5d15a5"  >
</g>
<g transform="matrix(52.3 0 0 63.28 540 542.26)"  >
<path style="stroke: rgb(255,43,10); stroke-opacity: 0; stroke-width: 1; stroke-dasharray: none; stroke-linecap: butt; stroke-dashoffset: 0; stroke-linejoin: miter; stroke-miterlimit: 4; fill: rgb(224,232,88); fill-rule: evenodd; opacity: 1;"  transform=" translate(-12, -12)" d="M 14.9523 6.2635 L 10.4523 18.2635 L 9.04784 17.7368 L 13.5478 5.73682 L 14.9523 6.2635 Z M 19.1894 12.0001 L 15.9698 8.78042 L 17.0304 7.71976 L 21.3108 12.0001 L 17.0304 16.2804 L 15.9698 15.2198 L 19.1894 12.0001 Z M 8.03032 15.2198 L 4.81065 12.0002 L 8.03032 8.78049 L 6.96966 7.71983 L 2.68933 12.0002 L 6.96966 16.2805 L 8.03032 15.2198 Z" stroke-linecap="round" />
</g>
<g transform="matrix(0 0 0 0 0 0)"  >
<g style=""   >
</g>
</g>
<g transform="matrix(0 0 0 0 0 0)"  >
<g style=""   >
</g>
</g>
<g transform="matrix(0 0 0 0 0 0)"  >
<g style=""   >
</g>
</g>
<g transform="matrix(NaN NaN NaN NaN 0 0)"  >
<g style=""   >
</g>
</g>
<g transform="matrix(NaN NaN NaN NaN 0 0)"  >
<g style=""   >
</g>
</g>
</svg>